<svg xmlns="http://www.w3.org/2000/svg" xmlns:xlink="http://www.w3.org/1999/xlink" width="378" zoomAndPan="magnify" viewBox="0 0 283.5 283.500005" height="378" preserveAspectRatio="xMidYMid meet" version="1.0"><defs><clipPath id="7aa40f26ed"><path d="M 9.007812 9.007812 L 273.957031 9.007812 L 273.957031 273.957031 L 9.007812 273.957031 Z M 9.007812 9.007812 " clip-rule="nonzero"/></clipPath><clipPath id="3f98f4bcaa"><path d="M 141.484375 9.007812 C 68.320312 9.007812 9.007812 68.320312 9.007812 141.484375 C 9.007812 214.644531 68.320312 273.957031 141.484375 273.957031 C 214.644531 273.957031 273.957031 214.644531 273.957031 141.484375 C 273.957031 68.320312 214.644531 9.007812 141.484375 9.007812 Z M 141.484375 9.007812 " clip-rule="nonzero"/></clipPath><linearGradient x1="-0.0000000154574" gradientTransform="matrix(1.034953, 0, 0, 1.034953, 9.008733, 9.008754)" y1="128" x2="255.999996" gradientUnits="userSpaceOnUse" y2="128" id="4698e8ac0a"><stop stop-opacity="1" stop-color="rgb(65.098572%, 65.098572%, 65.098572%)" offset="0"/><stop stop-opacity="1" stop-color="rgb(65.234375%, 65.234375%, 65.234375%)" offset="0.0078125"/><stop stop-opacity="1" stop-color="rgb(65.507507%, 65.507507%, 65.507507%)" offset="0.015625"/><stop stop-opacity="1" stop-color="rgb(65.78064%, 65.78064%, 65.78064%)" offset="0.0234375"/><stop stop-opacity="1" stop-color="rgb(66.052246%, 66.052246%, 66.052246%)" offset="0.03125"/><stop stop-opacity="1" stop-color="rgb(66.325378%, 66.325378%, 66.325378%)" offset="0.0390625"/><stop stop-opacity="1" stop-color="rgb(66.598511%, 66.598511%, 66.598511%)" offset="0.046875"/><stop stop-opacity="1" stop-color="rgb(66.871643%, 66.871643%, 66.871643%)" offset="0.0546875"/><stop stop-opacity="1" stop-color="rgb(67.14325%, 67.14325%, 67.14325%)" offset="0.0625"/><stop stop-opacity="1" stop-color="rgb(67.416382%, 67.416382%, 67.416382%)" offset="0.0703125"/><stop stop-opacity="1" stop-color="rgb(67.689514%, 67.689514%, 67.689514%)" offset="0.078125"/><stop stop-opacity="1" stop-color="rgb(67.961121%, 67.961121%, 67.961121%)" offset="0.0859375"/><stop stop-opacity="1" stop-color="rgb(68.234253%, 68.234253%, 68.234253%)" offset="0.09375"/><stop stop-opacity="1" stop-color="rgb(68.507385%, 68.507385%, 68.507385%)" offset="0.101562"/><stop stop-opacity="1" stop-color="rgb(68.778992%, 68.778992%, 68.778992%)" offset="0.109375"/><stop stop-opacity="1" stop-color="rgb(69.052124%, 69.052124%, 69.052124%)" offset="0.117188"/><stop stop-opacity="1" stop-color="rgb(69.325256%, 69.325256%, 69.325256%)" offset="0.125"/><stop stop-opacity="1" stop-color="rgb(69.596863%, 69.596863%, 69.596863%)" offset="0.132812"/><stop stop-opacity="1" stop-color="rgb(69.869995%, 69.869995%, 69.869995%)" offset="0.140625"/><stop stop-opacity="1" stop-color="rgb(70.143127%, 70.143127%, 70.143127%)" offset="0.148438"/><stop stop-opacity="1" stop-color="rgb(70.41626%, 70.41626%, 70.41626%)" offset="0.15625"/><stop stop-opacity="1" stop-color="rgb(70.687866%, 70.687866%, 70.687866%)" offset="0.164063"/><stop stop-opacity="1" stop-color="rgb(70.960999%, 70.960999%, 70.960999%)" offset="0.171875"/><stop stop-opacity="1" stop-color="rgb(71.234131%, 71.234131%, 71.234131%)" offset="0.179688"/><stop stop-opacity="1" stop-color="rgb(71.505737%, 71.505737%, 71.505737%)" offset="0.1875"/><stop stop-opacity="1" stop-color="rgb(71.77887%, 71.77887%, 71.77887%)" offset="0.195313"/><stop stop-opacity="1" stop-color="rgb(72.052002%, 72.052002%, 72.052002%)" offset="0.203125"/><stop stop-opacity="1" stop-color="rgb(72.323608%, 72.323608%, 72.323608%)" offset="0.210938"/><stop stop-opacity="1" stop-color="rgb(72.596741%, 72.596741%, 72.596741%)" offset="0.21875"/><stop stop-opacity="1" stop-color="rgb(72.869873%, 72.869873%, 72.869873%)" offset="0.226563"/><stop stop-opacity="1" stop-color="rgb(73.141479%, 73.141479%, 73.141479%)" offset="0.234375"/><stop stop-opacity="1" stop-color="rgb(73.414612%, 73.414612%, 73.414612%)" offset="0.242188"/><stop stop-opacity="1" stop-color="rgb(73.687744%, 73.687744%, 73.687744%)" offset="0.25"/><stop stop-opacity="1" stop-color="rgb(73.959351%, 73.959351%, 73.959351%)" offset="0.257813"/><stop stop-opacity="1" stop-color="rgb(74.232483%, 74.232483%, 74.232483%)" offset="0.265625"/><stop stop-opacity="1" stop-color="rgb(74.505615%, 74.505615%, 74.505615%)" offset="0.273438"/><stop stop-opacity="1" stop-color="rgb(74.778748%, 74.778748%, 74.778748%)" offset="0.28125"/><stop stop-opacity="1" stop-color="rgb(75.050354%, 75.050354%, 75.050354%)" offset="0.289062"/><stop stop-opacity="1" stop-color="rgb(75.323486%, 75.323486%, 75.323486%)" offset="0.296875"/><stop stop-opacity="1" stop-color="rgb(75.596619%, 75.596619%, 75.596619%)" offset="0.304688"/><stop stop-opacity="1" stop-color="rgb(75.868225%, 75.868225%, 75.868225%)" offset="0.3125"/><stop stop-opacity="1" stop-color="rgb(76.141357%, 76.141357%, 76.141357%)" offset="0.320313"/><stop stop-opacity="1" stop-color="rgb(76.41449%, 76.41449%, 76.41449%)" offset="0.328125"/><stop stop-opacity="1" stop-color="rgb(76.686096%, 76.686096%, 76.686096%)" offset="0.335938"/><stop stop-opacity="1" stop-color="rgb(76.959229%, 76.959229%, 76.959229%)" offset="0.34375"/><stop stop-opacity="1" stop-color="rgb(77.232361%, 77.232361%, 77.232361%)" offset="0.351562"/><stop stop-opacity="1" stop-color="rgb(77.503967%, 77.503967%, 77.503967%)" offset="0.359375"/><stop stop-opacity="1" stop-color="rgb(77.7771%, 77.7771%, 77.7771%)" offset="0.367188"/><stop stop-opacity="1" stop-color="rgb(78.050232%, 78.050232%, 78.050232%)" offset="0.375"/><stop stop-opacity="1" stop-color="rgb(78.321838%, 78.321838%, 78.321838%)" offset="0.382812"/><stop stop-opacity="1" stop-color="rgb(78.594971%, 78.594971%, 78.594971%)" offset="0.390625"/><stop stop-opacity="1" stop-color="rgb(78.868103%, 78.868103%, 78.868103%)" offset="0.398438"/><stop stop-opacity="1" stop-color="rgb(79.141235%, 79.141235%, 79.141235%)" offset="0.40625"/><stop stop-opacity="1" stop-color="rgb(79.412842%, 79.412842%, 79.412842%)" offset="0.414062"/><stop stop-opacity="1" stop-color="rgb(79.685974%, 79.685974%, 79.685974%)" offset="0.421875"/><stop stop-opacity="1" stop-color="rgb(79.959106%, 79.959106%, 79.959106%)" offset="0.429688"/><stop stop-opacity="1" stop-color="rgb(80.230713%, 80.230713%, 80.230713%)" offset="0.4375"/><stop stop-opacity="1" stop-color="rgb(80.503845%, 80.503845%, 80.503845%)" offset="0.445312"/><stop stop-opacity="1" stop-color="rgb(80.776978%, 80.776978%, 80.776978%)" offset="0.453125"/><stop stop-opacity="1" stop-color="rgb(81.048584%, 81.048584%, 81.048584%)" offset="0.460938"/><stop stop-opacity="1" stop-color="rgb(81.321716%, 81.321716%, 81.321716%)" offset="0.46875"/><stop stop-opacity="1" stop-color="rgb(81.594849%, 81.594849%, 81.594849%)" offset="0.476563"/><stop stop-opacity="1" stop-color="rgb(81.866455%, 81.866455%, 81.866455%)" offset="0.484375"/><stop stop-opacity="1" stop-color="rgb(82.139587%, 82.139587%, 82.139587%)" offset="0.492188"/><stop stop-opacity="1" stop-color="rgb(82.41272%, 82.41272%, 82.41272%)" offset="0.5"/><stop stop-opacity="1" stop-color="rgb(82.684326%, 82.684326%, 82.684326%)" offset="0.507812"/><stop stop-opacity="1" stop-color="rgb(82.957458%, 82.957458%, 82.957458%)" offset="0.515625"/><stop stop-opacity="1" stop-color="rgb(83.230591%, 83.230591%, 83.230591%)" offset="0.523438"/><stop stop-opacity="1" stop-color="rgb(83.503723%, 83.503723%, 83.503723%)" offset="0.53125"/><stop stop-opacity="1" stop-color="rgb(83.77533%, 83.77533%, 83.77533%)" offset="0.539062"/><stop stop-opacity="1" stop-color="rgb(84.048462%, 84.048462%, 84.048462%)" offset="0.546875"/><stop stop-opacity="1" stop-color="rgb(84.321594%, 84.321594%, 84.321594%)" offset="0.554688"/><stop stop-opacity="1" stop-color="rgb(84.593201%, 84.593201%, 84.593201%)" offset="0.5625"/><stop stop-opacity="1" stop-color="rgb(84.866333%, 84.866333%, 84.866333%)" offset="0.570313"/><stop stop-opacity="1" stop-color="rgb(85.139465%, 85.139465%, 85.139465%)" offset="0.578125"/><stop stop-opacity="1" stop-color="rgb(85.411072%, 85.411072%, 85.411072%)" offset="0.585938"/><stop stop-opacity="1" stop-color="rgb(85.684204%, 85.684204%, 85.684204%)" offset="0.59375"/><stop stop-opacity="1" stop-color="rgb(85.957336%, 85.957336%, 85.957336%)" offset="0.601563"/><stop stop-opacity="1" stop-color="rgb(86.228943%, 86.228943%, 86.228943%)" offset="0.609375"/><stop stop-opacity="1" stop-color="rgb(86.502075%, 86.502075%, 86.502075%)" offset="0.617188"/><stop stop-opacity="1" stop-color="rgb(86.775208%, 86.775208%, 86.775208%)" offset="0.625"/><stop stop-opacity="1" stop-color="rgb(87.046814%, 87.046814%, 87.046814%)" offset="0.632812"/><stop stop-opacity="1" stop-color="rgb(87.319946%, 87.319946%, 87.319946%)" offset="0.640625"/><stop stop-opacity="1" stop-color="rgb(87.593079%, 87.593079%, 87.593079%)" offset="0.648438"/><stop stop-opacity="1" stop-color="rgb(87.866211%, 87.866211%, 87.866211%)" offset="0.65625"/><stop stop-opacity="1" stop-color="rgb(88.137817%, 88.137817%, 88.137817%)" offset="0.664062"/><stop stop-opacity="1" stop-color="rgb(88.41095%, 88.41095%, 88.41095%)" offset="0.671875"/><stop stop-opacity="1" stop-color="rgb(88.684082%, 88.684082%, 88.684082%)" offset="0.679688"/><stop stop-opacity="1" stop-color="rgb(88.955688%, 88.955688%, 88.955688%)" offset="0.6875"/><stop stop-opacity="1" stop-color="rgb(89.228821%, 89.228821%, 89.228821%)" offset="0.695312"/><stop stop-opacity="1" stop-color="rgb(89.501953%, 89.501953%, 89.501953%)" offset="0.703125"/><stop stop-opacity="1" stop-color="rgb(89.77356%, 89.77356%, 89.77356%)" offset="0.710938"/><stop stop-opacity="1" stop-color="rgb(90.046692%, 90.046692%, 90.046692%)" offset="0.71875"/><stop stop-opacity="1" stop-color="rgb(90.319824%, 90.319824%, 90.319824%)" offset="0.726563"/><stop stop-opacity="1" stop-color="rgb(90.591431%, 90.591431%, 90.591431%)" offset="0.734375"/><stop stop-opacity="1" stop-color="rgb(90.864563%, 90.864563%, 90.864563%)" offset="0.742188"/><stop stop-opacity="1" stop-color="rgb(91.137695%, 91.137695%, 91.137695%)" offset="0.75"/><stop stop-opacity="1" stop-color="rgb(91.409302%, 91.409302%, 91.409302%)" offset="0.757812"/><stop stop-opacity="1" stop-color="rgb(91.682434%, 91.682434%, 91.682434%)" offset="0.765625"/><stop stop-opacity="1" stop-color="rgb(91.955566%, 91.955566%, 91.955566%)" offset="0.773438"/><stop stop-opacity="1" stop-color="rgb(92.228699%, 92.228699%, 92.228699%)" offset="0.78125"/><stop stop-opacity="1" stop-color="rgb(92.500305%, 92.500305%, 92.500305%)" offset="0.789062"/><stop stop-opacity="1" stop-color="rgb(92.773438%, 92.773438%, 92.773438%)" offset="0.796875"/><stop stop-opacity="1" stop-color="rgb(93.04657%, 93.04657%, 93.04657%)" offset="0.804688"/><stop stop-opacity="1" stop-color="rgb(93.318176%, 93.318176%, 93.318176%)" offset="0.8125"/><stop stop-opacity="1" stop-color="rgb(93.591309%, 93.591309%, 93.591309%)" offset="0.820312"/><stop stop-opacity="1" stop-color="rgb(93.864441%, 93.864441%, 93.864441%)" offset="0.828125"/><stop stop-opacity="1" stop-color="rgb(94.136047%, 94.136047%, 94.136047%)" offset="0.835938"/><stop stop-opacity="1" stop-color="rgb(94.40918%, 94.40918%, 94.40918%)" offset="0.84375"/><stop stop-opacity="1" stop-color="rgb(94.682312%, 94.682312%, 94.682312%)" offset="0.851563"/><stop stop-opacity="1" stop-color="rgb(94.953918%, 94.953918%, 94.953918%)" offset="0.859375"/><stop stop-opacity="1" stop-color="rgb(95.227051%, 95.227051%, 95.227051%)" offset="0.867188"/><stop stop-opacity="1" stop-color="rgb(95.500183%, 95.500183%, 95.500183%)" offset="0.875"/><stop stop-opacity="1" stop-color="rgb(95.77179%, 95.77179%, 95.77179%)" offset="0.882812"/><stop stop-opacity="1" stop-color="rgb(96.044922%, 96.044922%, 96.044922%)" offset="0.890625"/><stop stop-opacity="1" stop-color="rgb(96.318054%, 96.318054%, 96.318054%)" offset="0.898437"/><stop stop-opacity="1" stop-color="rgb(96.591187%, 96.591187%, 96.591187%)" offset="0.90625"/><stop stop-opacity="1" stop-color="rgb(96.862793%, 96.862793%, 96.862793%)" offset="0.914062"/><stop stop-opacity="1" stop-color="rgb(97.135925%, 97.135925%, 97.135925%)" offset="0.921875"/><stop stop-opacity="1" stop-color="rgb(97.409058%, 97.409058%, 97.409058%)" offset="0.929688"/><stop stop-opacity="1" stop-color="rgb(97.680664%, 97.680664%, 97.680664%)" offset="0.9375"/><stop stop-opacity="1" stop-color="rgb(97.953796%, 97.953796%, 97.953796%)" offset="0.945312"/><stop stop-opacity="1" stop-color="rgb(98.226929%, 98.226929%, 98.226929%)" offset="0.953125"/><stop stop-opacity="1" stop-color="rgb(98.498535%, 98.498535%, 98.498535%)" offset="0.960938"/><stop stop-opacity="1" stop-color="rgb(98.771667%, 98.771667%, 98.771667%)" offset="0.96875"/><stop stop-opacity="1" stop-color="rgb(99.0448%, 99.0448%, 99.0448%)" offset="0.976563"/><stop stop-opacity="1" stop-color="rgb(99.316406%, 99.316406%, 99.316406%)" offset="0.984375"/><stop stop-opacity="1" stop-color="rgb(99.589539%, 99.589539%, 99.589539%)" offset="0.992188"/><stop stop-opacity="1" stop-color="rgb(99.862671%, 99.862671%, 99.862671%)" offset="1"/></linearGradient><clipPath id="4b7e0a706e"><path d="M 59.644531 65 L 223 65 L 223 218.34375 L 59.644531 218.34375 Z M 59.644531 65 " clip-rule="nonzero"/></clipPath></defs><g clip-path="url(#7aa40f26ed)"><g clip-path="url(#3f98f4bcaa)"><path fill="url(#4698e8ac0a)" d="M 9.007812 9.007812 L 9.007812 273.957031 L 273.957031 273.957031 L 273.957031 9.007812 Z M 9.007812 9.007812 " fill-rule="nonzero"/></g></g><g clip-path="url(#4b7e0a706e)"><path fill="#000000" d="M 222.164062 68 C 220.941406 64.851562 217.726562 65.625 215.078125 66.019531 C 208.949219 67.324219 203.585938 70.917969 197.988281 73.605469 C 189.867188 78.222656 182.476562 84.519531 177.882812 92.757812 C 177.769531 86.695312 167.226562 95.570312 165.640625 97.359375 C 160.058594 103.042969 155.300781 109.511719 151.058594 116.253906 C 151.34375 114.230469 151.390625 111.765625 149.828125 110.226562 C 147.4375 108.652344 144.417969 109.109375 142.027344 110.4375 C 138.230469 112.398438 136.140625 116.53125 134.492188 120.296875 C 132.359375 124.917969 132.558594 130.105469 131.410156 134.988281 C 130.089844 141.03125 128.390625 147.140625 126.753906 153.132812 C 123.628906 163.796875 119.757812 174.214844 115.929688 184.660156 C 114.097656 189.582031 112.398438 194.550781 110.496094 199.445312 C 108.601562 203.476562 106.285156 207.445312 105.761719 211.882812 C 104.699219 212.054688 103.585938 212.089844 102.640625 211.566406 C 101.421875 210.925781 100.894531 209.207031 99.253906 209.34375 C 97.597656 209.671875 96.453125 211.015625 94.847656 211.410156 C 94.609375 211.449219 94.320312 211.488281 94.09375 211.378906 C 93.953125 211.296875 93.878906 211.203125 93.832031 211.046875 C 93.539062 209.617188 94.277344 208.222656 93.875 206.746094 C 92.941406 203.542969 88.722656 206.289062 87.199219 207.582031 C 84.523438 209.9375 82.324219 212.625 79.707031 214.800781 C 78.527344 215.75 77.324219 216.78125 75.761719 217.054688 C 74.289062 217.074219 74.734375 214.113281 74.976562 213.246094 C 76.503906 207.214844 81.398438 202.570312 85.464844 197.363281 C 88.800781 193.421875 95.46875 181.972656 85.054688 183.300781 C 81.613281 184.226562 78.746094 186.460938 75.957031 188.367188 C 70.8125 191.949219 66.511719 196.253906 63.558594 201.28125 C 62.546875 203.011719 61.601562 204.738281 60.792969 206.527344 C 60.285156 207.664062 59.644531 208.828125 59.707031 210.128906 C 59.710938 210.222656 59.851562 210.273438 59.773438 210.207031 C 60.941406 207.183594 62.59375 204.195312 64.359375 201.300781 C 67.117188 197.03125 70.878906 193.351562 75.296875 190.164062 C 78.414062 188.128906 81.496094 185.585938 85.328125 184.550781 C 91.402344 183.589844 89.113281 189.472656 87.261719 192.601562 C 85.574219 195.59375 83.347656 198.148438 81.253906 200.695312 C 78.210938 204.488281 75.132812 208.277344 73.949219 212.769531 C 73.53125 214.4375 73.0625 217.167969 75.179688 218.058594 C 78.128906 218.414062 81.058594 215.027344 83.03125 213.183594 C 85.394531 211.066406 88.648438 205.792969 92.503906 206.125 C 92.628906 206.1875 92.765625 206.265625 92.828125 206.394531 C 93.6875 208.082031 92.214844 209.980469 92.953125 211.667969 C 94.410156 213.683594 97.117188 211.566406 98.753906 210.773438 C 99.503906 210.308594 99.925781 210.710938 100.449219 211.21875 C 101.726562 212.664062 104.011719 212.902344 105.742188 211.992188 C 105.734375 212.085938 105.710938 212.171875 105.703125 212.261719 C 105.773438 212.15625 105.828125 212.035156 105.898438 211.929688 C 105.972656 211.886719 106.0625 211.875 106.136719 211.828125 C 106.070312 211.839844 106.003906 211.84375 105.941406 211.855469 C 107.710938 209.035156 108.882812 205.84375 110.421875 202.882812 C 112.984375 198.015625 115.207031 192.90625 117.765625 188.019531 C 119.558594 184.484375 121.558594 181.09375 123.628906 177.753906 C 124.875 176.351562 125.839844 174.796875 127.277344 173.484375 C 129.550781 171.417969 131.875 169.378906 134.070312 167.21875 C 136.53125 165.207031 139.132812 163.128906 141.746094 161.28125 C 146.667969 158.015625 151.789062 154.972656 156.472656 151.355469 C 159.988281 148.550781 163.730469 145.910156 166.671875 142.480469 C 172.738281 142.484375 177.988281 138.125 181.410156 133.425781 C 184.878906 128.296875 186.589844 122.214844 188.777344 116.476562 C 190.5625 112.121094 192.761719 107.941406 194.835938 103.722656 C 196.78125 99.898438 198.664062 96.046875 201.164062 92.414062 C 203.539062 89.070312 205.929688 85.582031 208.957031 82.785156 C 211.679688 79.882812 223.476562 71.796875 222.164062 68 Z M 165.613281 141.039062 C 164.863281 140.675781 164.113281 140.210938 163.71875 139.441406 C 163.183594 137.679688 163.328125 135.75 164.230469 134.113281 C 164.757812 133.089844 165.417969 132.140625 166.601562 131.796875 C 167.085938 131.679688 167.722656 131.507812 168.21875 131.695312 C 168.839844 132.054688 169.414062 132.667969 169.648438 133.378906 C 169.929688 136.425781 167.304688 138.757812 165.613281 141.039062 Z M 213.914062 76.824219 C 211.347656 78.972656 208.660156 81 206.246094 83.320312 C 204.472656 85.21875 202.882812 87.273438 201.300781 89.332031 C 194.980469 97.589844 190.386719 107.113281 186.75 116.824219 C 185.847656 119.792969 184.910156 122.667969 183.789062 125.582031 C 183.023438 127.65625 182.316406 129.773438 181.128906 131.679688 C 178.164062 136.613281 173.351562 141 167.386719 141.511719 C 168.90625 139.1875 170.808594 136.75 170.808594 133.851562 C 170.835938 132.664062 169.992188 131.6875 169.113281 130.984375 C 167.199219 129.71875 164.46875 131.15625 163.519531 133.035156 C 161.820312 135.722656 161.390625 140.4375 164.871094 141.875 C 160.355469 146.21875 155.339844 150.074219 150.242188 153.707031 C 147.691406 155.230469 145.390625 157.109375 142.933594 158.765625 C 139.332031 161.136719 135.789062 163.839844 132.496094 166.660156 C 131.21875 168.089844 129.65625 169.375 128.15625 170.710938 C 130.132812 167.746094 132.132812 164.796875 134.140625 161.847656 C 139.492188 154.425781 144.433594 146.796875 149.585938 139.300781 C 154.230469 133.097656 158.992188 127.007812 163.886719 121.078125 C 167.59375 116.507812 171.878906 112.457031 175.765625 108.09375 C 177.914062 105.585938 179.949219 103.015625 182.652344 101.113281 C 182.789062 101.027344 182.917969 100.898438 182.9375 100.714844 C 182.882812 100.558594 182.664062 100.582031 182.542969 100.636719 C 179.664062 102.476562 177.132812 104.8125 174.738281 107.289062 C 169.179688 112.652344 163.746094 118.1875 158.957031 124.378906 C 155.636719 128.609375 152.332031 132.863281 149.035156 137.148438 C 145.515625 142.144531 142.054688 147.238281 138.578125 152.351562 C 132.386719 161.191406 125.953125 170.101562 120.289062 179.453125 C 118.910156 181.796875 117.65625 184.203125 116.449219 186.632812 C 117.800781 183.164062 119.140625 179.664062 120.371094 176.164062 C 123.75 166.578125 127.296875 156.976562 129.632812 147.054688 C 131.144531 141.316406 132.765625 135.5625 133.484375 129.664062 C 134.039062 123.425781 136.269531 117.054688 140.75 112.53125 C 143.054688 110.675781 146.316406 109.347656 149.117188 110.921875 C 150.191406 111.894531 150.246094 113.503906 150.191406 114.898438 C 150 116.878906 149.664062 118.890625 148.511719 120.550781 C 147.292969 122.625 146.273438 124.679688 145.179688 126.859375 C 144.191406 128.984375 142.738281 131.027344 141.980469 133.242188 C 141.996094 133.5 142.089844 133.746094 142.324219 133.886719 C 142.949219 134.261719 143.429688 133.5 143.730469 133.074219 C 144.132812 132.503906 144.515625 131.914062 144.875 131.320312 C 147.132812 127.675781 149.132812 123.835938 150.300781 119.695312 C 151.785156 117.121094 153.480469 114.667969 155.136719 112.207031 C 159.046875 106.527344 163.464844 101.035156 168.457031 96.253906 C 170.332031 94.597656 179.113281 87.558594 176.554688 94.714844 C 175.925781 96.464844 175.023438 98.144531 173.9375 99.65625 C 173.558594 100.191406 173.152344 100.707031 172.726562 101.203125 C 172.574219 101.390625 172.453125 101.601562 172.515625 101.851562 C 172.585938 102.109375 172.847656 102.28125 173.109375 102.25 C 173.511719 102.171875 173.722656 101.757812 173.96875 101.464844 C 175.574219 99.496094 176.804688 97.277344 177.957031 95.023438 C 179.125 92.867188 180.460938 90.796875 182.003906 88.878906 C 187.191406 82.335938 194.011719 77.105469 201.492188 73.441406 C 206.921875 70.902344 212.324219 67.589844 218.476562 67.214844 C 218.9375 67.226562 219.445312 67.125 219.867188 67.339844 C 220.28125 67.679688 220.855469 68.121094 220.992188 68.691406 C 220.992188 68.691406 221 68.675781 221 68.675781 C 220.660156 71.605469 216.140625 74.910156 213.914062 76.824219 Z M 213.914062 76.824219 " fill-opacity="1" fill-rule="nonzero"/></g></svg>