<svg xmlns="http://www.w3.org/2000/svg" xmlns:xlink="http://www.w3.org/1999/xlink" width="118" zoomAndPan="magnify" viewBox="0 0 88.5 33.749998" height="45" preserveAspectRatio="xMidYMid meet" version="1.0"><defs><g/><clipPath id="6ae4a019c1"><path d="M 1 30 L 31 30 L 31 33.5 L 1 33.5 Z M 1 30 " clip-rule="nonzero"/></clipPath><clipPath id="15d5bfdefe"><path d="M 3 9 L 7 9 L 7 33.5 L 3 33.5 Z M 3 9 " clip-rule="nonzero"/></clipPath></defs><g fill="#e4e2dd" fill-opacity="1"><g transform="translate(11.268899, 21.487859)"><g><path d="M 0.96875 -13.421875 L 5.140625 -13.421875 C 6.398438 -13.421875 7.398438 -13.148438 8.140625 -12.609375 C 8.890625 -12.078125 9.265625 -11.207031 9.265625 -10 C 9.265625 -8.65625 8.707031 -7.695312 7.59375 -7.125 C 9.5 -6.789062 10.453125 -5.660156 10.453125 -3.734375 C 10.453125 -2.609375 10.0625 -1.703125 9.28125 -1.015625 C 8.5 -0.335938 7.425781 0 6.0625 0 L 0.96875 0 Z M 4.03125 -8.171875 L 4.28125 -8.171875 C 4.957031 -8.171875 5.460938 -8.285156 5.796875 -8.515625 C 6.140625 -8.753906 6.3125 -9.144531 6.3125 -9.6875 C 6.3125 -10.601562 5.632812 -11.0625 4.28125 -11.0625 L 4.03125 -11.0625 Z M 4.03125 -2.359375 L 5 -2.359375 C 6.488281 -2.359375 7.234375 -2.859375 7.234375 -3.859375 C 7.234375 -4.453125 7.046875 -4.878906 6.671875 -5.140625 C 6.296875 -5.398438 5.738281 -5.53125 5 -5.53125 L 4.03125 -5.53125 Z M 4.03125 -2.359375 "/></g></g></g><g fill="#e4e2dd" fill-opacity="1"><g transform="translate(20.711163, 21.487859)"><g><path d="M 0.96875 0 L 0.96875 -13.984375 L 3.859375 -13.984375 L 3.859375 0 Z M 0.96875 0 "/></g></g></g><g fill="#e4e2dd" fill-opacity="1"><g transform="translate(24.155942, 21.487859)"><g><path d="M 1.765625 -0.984375 C 0.835938 -1.816406 0.375 -2.875 0.375 -4.15625 C 0.375 -5.445312 0.851562 -6.507812 1.8125 -7.34375 C 2.78125 -8.175781 3.976562 -8.59375 5.40625 -8.59375 C 6.800781 -8.59375 7.976562 -8.171875 8.9375 -7.328125 C 9.894531 -6.492188 10.375 -5.4375 10.375 -4.15625 C 10.375 -2.882812 9.90625 -1.832031 8.96875 -1 C 8.03125 -0.164062 6.84375 0.25 5.40625 0.25 C 3.90625 0.25 2.691406 -0.160156 1.765625 -0.984375 Z M 3.984375 -5.578125 C 3.617188 -5.210938 3.4375 -4.738281 3.4375 -4.15625 C 3.4375 -3.582031 3.613281 -3.113281 3.96875 -2.75 C 4.320312 -2.394531 4.796875 -2.21875 5.390625 -2.21875 C 5.953125 -2.21875 6.410156 -2.398438 6.765625 -2.765625 C 7.128906 -3.128906 7.3125 -3.59375 7.3125 -4.15625 C 7.3125 -4.738281 7.125 -5.210938 6.75 -5.578125 C 6.382812 -5.941406 5.929688 -6.125 5.390625 -6.125 C 4.828125 -6.125 4.359375 -5.941406 3.984375 -5.578125 Z M 3.984375 -5.578125 "/></g></g></g><g fill="#e4e2dd" fill-opacity="1"><g transform="translate(33.516939, 21.487859)"><g><path d="M 0.609375 2.046875 L 2.953125 0.890625 C 3.390625 1.609375 4.144531 1.96875 5.21875 1.96875 C 5.71875 1.96875 6.179688 1.804688 6.609375 1.484375 C 7.035156 1.171875 7.25 0.679688 7.25 0.015625 L 7.25 -0.609375 C 6.738281 -0.0351562 5.828125 0.25 4.515625 0.25 C 3.316406 0.25 2.328125 -0.175781 1.546875 -1.03125 C 0.765625 -1.882812 0.375 -2.925781 0.375 -4.15625 C 0.375 -5.394531 0.765625 -6.441406 1.546875 -7.296875 C 2.328125 -8.160156 3.316406 -8.59375 4.515625 -8.59375 C 5.585938 -8.59375 6.484375 -8.257812 7.203125 -7.59375 L 7.25 -7.59375 L 7.25 -8.34375 L 10.140625 -8.34375 L 10.140625 0.234375 C 10.140625 1.585938 9.6875 2.628906 8.78125 3.359375 C 7.882812 4.097656 6.695312 4.46875 5.21875 4.46875 C 2.832031 4.46875 1.296875 3.660156 0.609375 2.046875 Z M 3.984375 -5.578125 C 3.617188 -5.210938 3.4375 -4.738281 3.4375 -4.15625 C 3.4375 -3.582031 3.613281 -3.113281 3.96875 -2.75 C 4.320312 -2.394531 4.796875 -2.21875 5.390625 -2.21875 C 5.953125 -2.21875 6.410156 -2.398438 6.765625 -2.765625 C 7.128906 -3.128906 7.3125 -3.59375 7.3125 -4.15625 C 7.3125 -4.738281 7.125 -5.210938 6.75 -5.578125 C 6.382812 -5.941406 5.929688 -6.125 5.390625 -6.125 C 4.828125 -6.125 4.359375 -5.941406 3.984375 -5.578125 Z M 3.984375 -5.578125 "/></g></g></g><g fill="#e4e2dd" fill-opacity="1"><g transform="translate(43.235515, 21.487859)"><g><path d="M 4.03125 -8.328125 L 4.03125 0 L 0.96875 0 L 0.96875 -13.421875 L 4.03125 -13.421875 L 9.375 -5.09375 L 9.40625 -5.09375 L 9.40625 -13.421875 L 12.453125 -13.421875 L 12.453125 0 L 9.40625 0 L 4.0625 -8.328125 Z M 4.03125 -8.328125 "/></g></g></g><g fill="#e4e2dd" fill-opacity="1"><g transform="translate(55.278322, 21.487859)"><g><path d="M 9.421875 -3.78125 L 3.359375 -3.78125 C 3.359375 -3.1875 3.546875 -2.75 3.921875 -2.46875 C 4.304688 -2.1875 4.722656 -2.046875 5.171875 -2.046875 C 5.640625 -2.046875 6.007812 -2.109375 6.28125 -2.234375 C 6.550781 -2.359375 6.859375 -2.609375 7.203125 -2.984375 L 9.28125 -1.9375 C 8.414062 -0.476562 6.976562 0.25 4.96875 0.25 C 3.707031 0.25 2.625 -0.179688 1.71875 -1.046875 C 0.820312 -1.910156 0.375 -2.945312 0.375 -4.15625 C 0.375 -5.375 0.820312 -6.414062 1.71875 -7.28125 C 2.625 -8.15625 3.707031 -8.59375 4.96875 -8.59375 C 6.289062 -8.59375 7.363281 -8.207031 8.1875 -7.4375 C 9.019531 -6.675781 9.4375 -5.582031 9.4375 -4.15625 C 9.4375 -3.96875 9.429688 -3.84375 9.421875 -3.78125 Z M 3.453125 -5.375 L 6.625 -5.375 C 6.550781 -5.800781 6.375 -6.128906 6.09375 -6.359375 C 5.820312 -6.597656 5.472656 -6.71875 5.046875 -6.71875 C 4.566406 -6.71875 4.1875 -6.59375 3.90625 -6.34375 C 3.625 -6.09375 3.472656 -5.769531 3.453125 -5.375 Z M 3.453125 -5.375 "/></g></g></g><g fill="#e4e2dd" fill-opacity="1"><g transform="translate(63.69663, 21.487859)"><g><path d="M 4.609375 -8.59375 C 5.078125 -8.59375 5.546875 -8.535156 6.015625 -8.421875 C 6.484375 -8.316406 6.832031 -8.207031 7.0625 -8.09375 L 7.40625 -7.9375 L 6.453125 -6.046875 C 5.804688 -6.398438 5.191406 -6.578125 4.609375 -6.578125 C 4.273438 -6.578125 4.039062 -6.539062 3.90625 -6.46875 C 3.769531 -6.394531 3.703125 -6.257812 3.703125 -6.0625 C 3.703125 -6.019531 3.707031 -5.976562 3.71875 -5.9375 C 3.726562 -5.894531 3.75 -5.851562 3.78125 -5.8125 C 3.820312 -5.78125 3.851562 -5.75 3.875 -5.71875 C 3.90625 -5.6875 3.953125 -5.65625 4.015625 -5.625 C 4.078125 -5.59375 4.128906 -5.566406 4.171875 -5.546875 C 4.210938 -5.535156 4.273438 -5.515625 4.359375 -5.484375 C 4.441406 -5.453125 4.503906 -5.425781 4.546875 -5.40625 C 4.597656 -5.394531 4.671875 -5.367188 4.765625 -5.328125 C 4.867188 -5.296875 4.953125 -5.273438 5.015625 -5.265625 C 5.347656 -5.171875 5.640625 -5.0625 5.890625 -4.9375 C 6.140625 -4.820312 6.398438 -4.660156 6.671875 -4.453125 C 6.953125 -4.242188 7.164062 -3.984375 7.3125 -3.671875 C 7.46875 -3.359375 7.546875 -3.003906 7.546875 -2.609375 C 7.546875 -0.703125 6.226562 0.25 3.59375 0.25 C 3 0.25 2.429688 0.15625 1.890625 -0.03125 C 1.359375 -0.21875 0.972656 -0.398438 0.734375 -0.578125 L 0.375 -0.875 L 1.546875 -2.84375 C 1.628906 -2.769531 1.738281 -2.679688 1.875 -2.578125 C 2.019531 -2.472656 2.273438 -2.332031 2.640625 -2.15625 C 3.015625 -1.976562 3.335938 -1.890625 3.609375 -1.890625 C 4.203125 -1.890625 4.5 -2.085938 4.5 -2.484375 C 4.5 -2.671875 4.421875 -2.816406 4.265625 -2.921875 C 4.117188 -3.023438 3.863281 -3.140625 3.5 -3.265625 C 3.132812 -3.398438 2.851562 -3.519531 2.65625 -3.625 C 2.132812 -3.894531 1.71875 -4.203125 1.40625 -4.546875 C 1.101562 -4.890625 0.953125 -5.34375 0.953125 -5.90625 C 0.953125 -6.75 1.28125 -7.40625 1.9375 -7.875 C 2.59375 -8.351562 3.484375 -8.59375 4.609375 -8.59375 Z M 4.609375 -8.59375 "/></g></g></g><g fill="#e4e2dd" fill-opacity="1"><g transform="translate(70.310809, 21.487859)"><g><path d="M 1.46875 -8.34375 L 1.46875 -11.453125 L 4.34375 -11.453125 L 4.34375 -8.34375 L 6.09375 -8.34375 L 6.09375 -6.140625 L 4.34375 -6.140625 L 4.34375 -3.5 C 4.34375 -2.726562 4.5625 -2.34375 5 -2.34375 C 5.101562 -2.34375 5.210938 -2.363281 5.328125 -2.40625 C 5.453125 -2.445312 5.546875 -2.488281 5.609375 -2.53125 L 5.703125 -2.609375 L 6.421875 -0.28125 C 5.804688 0.0703125 5.101562 0.25 4.3125 0.25 C 3.769531 0.25 3.300781 0.15625 2.90625 -0.03125 C 2.519531 -0.226562 2.222656 -0.484375 2.015625 -0.796875 C 1.816406 -1.117188 1.675781 -1.457031 1.59375 -1.8125 C 1.507812 -2.164062 1.46875 -2.539062 1.46875 -2.9375 L 1.46875 -6.140625 L 0.265625 -6.140625 L 0.265625 -8.34375 Z M 1.46875 -8.34375 "/></g></g></g><g clip-path="url(#6ae4a019c1)"><path stroke-linecap="butt" transform="matrix(0.744485, 0, 0, 0.744485, 3.427392, 30.706183)" fill="none" stroke-linejoin="miter" d="M -0.00216356 2.000214 L 34.459568 2.000214 " stroke="#e4e2dd" stroke-width="4" stroke-opacity="1" stroke-miterlimit="4"/></g><g clip-path="url(#15d5bfdefe)"><path stroke-linecap="butt" transform="matrix(0, 0.744485, -0.744485, 0, 6.401828, 11.170781)" fill="none" stroke-linejoin="miter" d="M 0.00146881 1.998381 L 28.948694 1.998381 " stroke="#e4e2dd" stroke-width="4" stroke-opacity="1" stroke-miterlimit="4"/></g><path stroke-linecap="butt" transform="matrix(-0.744485, 0, 0, -0.744485, 84.570647, 2.97794)" fill="none" stroke-linejoin="miter" d="M 0.000448753 2.000924 L 34.462181 2.000924 " stroke="#e4e2dd" stroke-width="4" stroke-opacity="1" stroke-miterlimit="4"/><path stroke-linecap="butt" transform="matrix(0, -0.744485, 0.744485, 0, 81.594828, 22.121345)" fill="none" stroke-linejoin="miter" d="M 0.000337503 1.997626 L 28.947563 1.997626 " stroke="#e4e2dd" stroke-width="4" stroke-opacity="1" stroke-miterlimit="4"/></svg>